<?xml version="1.0" standalone="no"?>
<!DOCTYPE svg PUBLIC "-//W3C//DTD SVG 20010904//EN"
 "http://www.w3.org/TR/2001/REC-SVG-20010904/DTD/svg10.dtd">
<svg version="1.0" xmlns="http://www.w3.org/2000/svg"
 width="500.000000pt" height="500.000000pt" viewBox="0 0 500.000000 500.000000"
 preserveAspectRatio="xMidYMid meet">

<g transform="translate(0.000000,500.000000) scale(0.100000,-0.100000)"
fill="#000000" stroke="none">
<path d="M1080 3090 c0 -18 7 -20 75 -20 l75 0 0 -205 0 -205 145 0 145 0 0
206 0 206 124 -4 c148 -5 199 -25 257 -102 46 -61 58 -100 66 -213 l6 -93 155
0 155 0 -7 33 c-3 17 -22 65 -41 106 -68 143 -227 268 -383 300 -33 7 -191 11
-412 11 -353 0 -360 0 -360 -20z"/>
<path d="M2460 3100 c0 -5 7 -10 15 -10 13 0 15 -31 15 -215 0 -137 4 -215 10
-215 6 0 10 78 10 215 0 184 2 215 15 215 8 0 15 5 15 10 0 6 -18 10 -40 10
-22 0 -40 -4 -40 -10z"/>
<path d="M2810 3090 c0 -18 7 -20 80 -20 l80 0 0 -205 0 -206 143 3 142 3 3
204 2 204 143 -5 c155 -6 197 -16 272 -68 55 -38 121 -144 137 -223 11 -52 15
-57 39 -57 l26 0 -4 103 c-2 56 -6 144 -9 195 l-6 92 -524 0 c-517 0 -524 0
-524 -20z"/>
<path d="M3570 2776 c0 -13 -7 -43 -15 -66 -8 -23 -15 -44 -15 -47 0 -2 19 -3
43 -1 l42 3 3 68 3 67 -31 0 c-25 0 -30 -4 -30 -24z"/>
<path d="M561 2498 c1 -40 4 -63 6 -50 3 16 11 22 29 22 42 0 64 18 64 51 0
32 -27 49 -76 49 -23 0 -24 -2 -23 -72z m84 22 c0 -22 -5 -25 -37 -28 -36 -3
-38 -2 -38 28 0 30 2 31 38 28 32 -3 37 -6 37 -28z"/>
<path d="M761 2498 c1 -40 4 -63 6 -50 3 14 12 22 26 22 11 0 32 -10 46 -22
l25 -23 -17 27 c-14 22 -14 27 -2 32 9 3 15 18 15 36 0 33 -26 50 -76 50 -23
0 -24 -2 -23 -72z m84 22 c0 -22 -5 -25 -37 -28 -36 -3 -38 -2 -38 28 0 30 2
31 38 28 32 -3 37 -6 37 -28z"/>
<path d="M977 2550 c-51 -40 -23 -120 41 -120 33 0 72 36 72 67 0 55 -69 87
-113 53z m89 -28 c16 -31 7 -61 -22 -74 -54 -25 -107 40 -68 83 25 27 74 22
90 -9z"/>
<path d="M1247 2530 l-24 -41 -23 36 c-12 20 -25 34 -27 31 -3 -3 4 -20 16
-39 11 -19 21 -46 21 -61 0 -14 5 -26 10 -26 6 0 10 11 10 25 0 14 12 44 26
66 14 23 23 43 21 46 -3 2 -16 -14 -30 -37z"/>
<path d="M1370 2500 l0 -70 48 2 47 1 -42 4 c-38 4 -43 7 -43 29 0 21 5 24 38
25 l37 2 -35 6 c-26 4 -36 12 -38 29 -3 20 1 22 37 22 23 0 41 5 41 10 0 6
-20 10 -45 10 l-45 0 0 -70z"/>
<path d="M1577 2550 c-33 -26 -36 -71 -7 -100 21 -21 74 -27 85 -10 4 6 -5 7
-23 4 -22 -5 -35 -1 -51 15 -44 44 -10 98 55 88 41 -7 36 8 -6 18 -18 4 -34 0
-53 -15z"/>
<path d="M1740 2560 c0 -5 11 -10 25 -10 23 0 24 -4 28 -62 l3 -63 2 63 c2 59
3 62 28 62 14 0 23 4 19 10 -3 6 -28 10 -56 10 -27 0 -49 -4 -49 -10z"/>
<path d="M1963 2560 c-24 -10 -43 -39 -43 -68 0 -27 42 -62 73 -62 63 0 90 80
41 119 -29 23 -38 24 -71 11z m69 -27 c24 -21 23 -48 -2 -73 -23 -23 -49 -26
-74 -7 -21 16 -24 60 -6 82 16 20 59 19 82 -2z"/>
<path d="M2162 2503 l-2 -73 48 2 47 1 -42 4 -42 4 -4 67 -3 67 -2 -72z"/>
<path d="M2538 2564 c-12 -11 -10 -134 2 -134 6 0 10 9 10 20 0 15 7 20 25 20
14 0 30 -9 37 -20 7 -11 16 -20 21 -20 4 0 1 11 -8 24 -14 21 -14 25 0 36 19
16 19 44 1 59 -18 15 -79 25 -88 15z m81 -28 c19 -23 2 -46 -35 -46 -31 0 -34
3 -34 30 0 26 3 30 29 30 16 0 34 -6 40 -14z"/>
<path d="M2751 2512 c-33 -65 -42 -102 -15 -64 20 30 80 31 89 2 3 -11 10 -20
16 -20 5 0 -2 25 -15 55 -43 97 -40 96 -75 27z m47 3 c16 -35 16 -35 -17 -35
-28 0 -29 1 -18 30 14 37 20 37 35 5z"/>
<path d="M2921 2563 c-1 -17 50 -133 59 -133 10 0 62 121 55 128 -2 3 -14 -18
-26 -46 -12 -29 -25 -52 -28 -52 -4 0 -18 26 -33 58 -14 31 -26 52 -27 45z"/>
<path d="M3137 2563 c-4 -3 -7 -35 -7 -70 l0 -63 53 2 c50 1 50 2 10 5 -38 4
-43 7 -43 28 0 19 6 24 33 28 l32 4 -32 1 c-28 2 -33 6 -33 27 0 22 4 25 35
25 19 0 35 5 35 10 0 11 -73 14 -83 3z"/>
<path d="M3717 2563 c-11 -10 -8 -133 3 -133 6 0 10 13 10 29 0 27 4 30 38 34
l37 4 -37 1 c-33 2 -38 5 -38 27 0 23 4 25 41 25 24 0 38 4 34 10 -7 11 -78
14 -88 3z"/>
<path d="M3917 2550 c-51 -40 -23 -120 41 -120 33 0 72 36 72 67 0 55 -69 87
-113 53z m89 -28 c16 -31 7 -61 -22 -74 -54 -25 -107 40 -68 83 25 27 74 22
90 -9z"/>
<path d="M4128 2564 c-12 -11 -10 -134 2 -134 6 0 10 9 10 20 0 15 7 20 25 20
14 0 30 -9 37 -20 7 -11 16 -20 21 -20 4 0 1 11 -8 24 -14 21 -14 25 0 36 19
16 19 44 1 59 -18 15 -79 25 -88 15z m81 -28 c19 -23 2 -46 -35 -46 -31 0 -34
3 -34 30 0 26 3 30 29 30 16 0 34 -6 40 -14z"/>
<path d="M4350 2557 c-38 -19 -48 -61 -23 -95 40 -53 123 -33 123 31 0 38 -7
50 -37 66 -27 14 -32 14 -63 -2z m74 -23 c33 -32 5 -94 -43 -94 -40 0 -68 69
-39 98 17 17 64 15 82 -4z"/>
<path d="M2344 2503 c-14 -32 -28 -61 -31 -65 -2 -5 0 -8 6 -8 5 0 13 9 16 20
5 15 15 20 45 20 30 0 40 -5 45 -20 3 -11 10 -20 15 -20 12 0 -47 124 -60 128
-6 2 -22 -23 -36 -55z m55 7 c10 -29 9 -30 -20 -30 -33 0 -33 0 -17 35 15 33
24 32 37 -5z"/>
<path d="M3320 2495 l0 -65 48 2 c43 1 44 2 10 5 l-38 4 0 60 c0 33 -4 59 -10
59 -6 0 -10 -28 -10 -65z"/>
<path d="M3490 2519 c0 -5 5 -7 10 -4 6 3 10 8 10 11 0 2 -4 4 -10 4 -5 0 -10
-5 -10 -11z"/>
<path d="M3490 2440 c0 -5 5 -10 10 -10 6 0 10 5 10 10 0 6 -4 10 -10 10 -5 0
-10 -4 -10 -10z"/>
<path d="M1230 2140 l0 -210 -75 0 c-69 0 -75 -2 -75 -21 0 -20 1 -20 378 -17
363 3 379 4 442 27 90 31 200 102 254 162 51 57 113 174 123 232 l6 37 -155 0
-155 0 -6 -82 c-12 -164 -59 -258 -153 -304 -51 -25 -71 -29 -176 -32 l-118
-4 0 211 0 211 -145 0 -145 0 0 -210z"/>
<path d="M2490 2110 c0 -207 -2 -240 -15 -240 -8 0 -15 -4 -15 -10 0 -5 18
-10 40 -10 22 0 40 5 40 10 0 6 -7 10 -15 10 -13 0 -15 33 -15 240 0 153 -4
240 -10 240 -6 0 -10 -87 -10 -240z"/>
<path d="M2970 2140 l0 -210 -80 0 c-73 0 -80 -2 -80 -20 0 -20 7 -20 300 -20
293 0 300 0 300 20 0 18 -7 20 -75 20 l-75 0 -2 208 -3 207 -142 3 -143 3 0
-211z"/>
<path d="M3572 2333 c2 -12 12 -18 28 -18 36 0 33 29 -3 33 -23 3 -28 0 -25
-15z"/>
</g>
</svg>
