<?xml version="1.0" standalone="no"?>
<!DOCTYPE svg PUBLIC "-//W3C//DTD SVG 20010904//EN"
 "http://www.w3.org/TR/2001/REC-SVG-20010904/DTD/svg10.dtd">
<svg version="1.0" xmlns="http://www.w3.org/2000/svg"
 width="500.000000pt" height="500.000000pt" viewBox="0 0 500.000000 500.000000"
 preserveAspectRatio="xMidYMid meet">

<g transform="translate(0.000000,500.000000) scale(0.100000,-0.100000)"
fill="#000000" stroke="none">
<path d="M0 2500 l0 -2500 2500 0 2500 0 0 2500 0 2500 -2500 0 -2500 0 0
-2500z m2652 1705 c360 -47 697 -214 958 -475 143 -143 230 -265 319 -445 72
-145 108 -246 143 -400 29 -132 37 -451 13 -600 -65 -414 -275 -781 -598
-1043 -223 -181 -497 -305 -780 -353 -106 -18 -149 -21 -327 -16 -169 4 -224
10 -315 30 -656 149 -1148 654 -1287 1322 -19 93 -22 141 -23 315 0 174 4 222
23 318 33 161 73 276 152 437 187 378 503 664 905 819 249 95 538 128 817 91z"/>
<path d="M1310 3690 c0 -18 7 -20 80 -20 l80 0 0 -600 0 -600 -80 0 c-74 0
-80 -1 -80 -21 0 -20 1 -20 398 -17 446 4 456 6 591 85 124 73 207 173 259
312 33 88 42 297 18 411 -47 223 -220 403 -437 455 -51 12 -140 15 -446 15
-376 0 -383 0 -383 -20z m773 -53 c56 -28 99 -72 131 -134 30 -58 38 -181 34
-476 -4 -258 -7 -288 -27 -351 -18 -55 -33 -80 -74 -120 -64 -64 -99 -75 -249
-83 l-118 -6 0 603 0 602 123 -4 c110 -3 129 -7 180 -31z"/>
<path d="M3113 3127 c3 -9 -111 -130 -291 -310 l-297 -297 -53 0 c-45 0 -52
-3 -52 -20 0 -16 7 -20 32 -20 31 0 14 -18 -291 -324 -197 -197 -329 -322
-338 -319 -21 8 -15 -11 10 -35 23 -22 46 -20 27 3 -6 7 93 113 324 344 320
319 334 332 367 329 l34 -3 0 -595 0 -595 -82 -3 c-75 -3 -83 -5 -83 -22 0
-19 9 -20 315 -20 308 0 315 0 315 20 0 18 -7 20 -80 20 l-80 0 0 320 0 320
90 0 c153 0 214 -48 234 -182 6 -42 10 -48 32 -48 l24 0 0 255 0 255 -23 0
c-20 0 -25 -8 -35 -59 -7 -33 -25 -76 -41 -98 -42 -58 -82 -73 -190 -73 l-91
0 0 256 0 257 148 -5 c176 -7 233 -24 313 -96 58 -52 114 -154 125 -228 6 -40
9 -44 35 -44 l29 0 -6 143 c-2 78 -7 170 -10 205 l-6 62 -481 0 -482 0 290
290 c200 200 293 286 300 280 23 -19 25 4 3 27 -24 25 -43 31 -35 10z"/>
</g>
</svg>
